<mxfile host="app.diagrams.net" modified="2023-10-04T22:35:35.120Z" agent="5.0 (Windows NT 10.0; Win64; x64) AppleWebKit/537.36 (KHTML, like Gecko) Chrome/117.0.0.0 Safari/537.36" etag="Uv01FqEerKVIheeFUL4P" version="21.0.6" type="github">
  <diagram name="Страница 1" id="d7_1ZnjXw10BxYz-Pu5-">
    <mxGraphModel dx="1434" dy="750" grid="1" gridSize="10" guides="1" tooltips="1" connect="1" arrows="1" fold="1" page="1" pageScale="1" pageWidth="827" pageHeight="1169" math="0" shadow="0">
      <root>
        <mxCell id="0" />
        <mxCell id="1" parent="0" />
        <mxCell id="7fV9h47dfjSvaiMQt5YR-9" value="" style="rounded=0;whiteSpace=wrap;html=1;" vertex="1" parent="1">
          <mxGeometry x="122.5" y="505" width="365" height="160" as="geometry" />
        </mxCell>
        <mxCell id="7fV9h47dfjSvaiMQt5YR-1" value="db&lt;br&gt;mysql" style="shape=cylinder3;whiteSpace=wrap;html=1;boundedLbl=1;backgroundOutline=1;size=15;" vertex="1" parent="1">
          <mxGeometry x="380" y="545" width="60" height="80" as="geometry" />
        </mxCell>
        <mxCell id="7fV9h47dfjSvaiMQt5YR-15" value="" style="edgeStyle=orthogonalEdgeStyle;rounded=0;orthogonalLoop=1;jettySize=auto;html=1;startArrow=classic;startFill=1;" edge="1" parent="1" source="7fV9h47dfjSvaiMQt5YR-2" target="7fV9h47dfjSvaiMQt5YR-10">
          <mxGeometry relative="1" as="geometry" />
        </mxCell>
        <mxCell id="7fV9h47dfjSvaiMQt5YR-2" value="" style="html=1;whiteSpace=wrap;shape=isoCube2;backgroundOutline=1;isoAngle=15;" vertex="1" parent="1">
          <mxGeometry x="130" y="80" width="90" height="140" as="geometry" />
        </mxCell>
        <mxCell id="7fV9h47dfjSvaiMQt5YR-16" value="" style="edgeStyle=orthogonalEdgeStyle;rounded=0;orthogonalLoop=1;jettySize=auto;html=1;startArrow=classic;startFill=1;" edge="1" parent="1" source="7fV9h47dfjSvaiMQt5YR-3" target="7fV9h47dfjSvaiMQt5YR-12">
          <mxGeometry relative="1" as="geometry" />
        </mxCell>
        <mxCell id="7fV9h47dfjSvaiMQt5YR-3" value="" style="html=1;whiteSpace=wrap;shape=isoCube2;backgroundOutline=1;isoAngle=15;" vertex="1" parent="1">
          <mxGeometry x="260" y="80" width="90" height="140" as="geometry" />
        </mxCell>
        <mxCell id="7fV9h47dfjSvaiMQt5YR-17" value="" style="edgeStyle=orthogonalEdgeStyle;rounded=0;orthogonalLoop=1;jettySize=auto;html=1;startArrow=classic;startFill=1;" edge="1" parent="1" source="7fV9h47dfjSvaiMQt5YR-4" target="7fV9h47dfjSvaiMQt5YR-13">
          <mxGeometry relative="1" as="geometry" />
        </mxCell>
        <mxCell id="7fV9h47dfjSvaiMQt5YR-4" value="" style="html=1;whiteSpace=wrap;shape=isoCube2;backgroundOutline=1;isoAngle=15;" vertex="1" parent="1">
          <mxGeometry x="460" y="80" width="90" height="140" as="geometry" />
        </mxCell>
        <mxCell id="7fV9h47dfjSvaiMQt5YR-5" value="&lt;font style=&quot;font-size: 18px;&quot;&gt;devices&lt;/font&gt;" style="text;html=1;strokeColor=none;fillColor=none;align=center;verticalAlign=middle;whiteSpace=wrap;rounded=0;" vertex="1" parent="1">
          <mxGeometry x="310" y="10" width="60" height="30" as="geometry" />
        </mxCell>
        <mxCell id="7fV9h47dfjSvaiMQt5YR-8" style="edgeStyle=orthogonalEdgeStyle;rounded=0;orthogonalLoop=1;jettySize=auto;html=1;entryX=0;entryY=0.5;entryDx=0;entryDy=0;entryPerimeter=0;startArrow=classic;startFill=1;" edge="1" parent="1" source="7fV9h47dfjSvaiMQt5YR-6" target="7fV9h47dfjSvaiMQt5YR-1">
          <mxGeometry relative="1" as="geometry" />
        </mxCell>
        <mxCell id="7fV9h47dfjSvaiMQt5YR-6" value="&lt;font style=&quot;font-size: 15px;&quot;&gt;backend&lt;br&gt;fastapi (python)&lt;/font&gt;" style="rounded=0;whiteSpace=wrap;html=1;" vertex="1" parent="1">
          <mxGeometry x="160" y="555" width="120" height="60" as="geometry" />
        </mxCell>
        <mxCell id="7fV9h47dfjSvaiMQt5YR-7" value="&lt;font size=&quot;1&quot; style=&quot;&quot;&gt;&lt;b style=&quot;font-size: 23px;&quot;&gt;...&lt;/b&gt;&lt;/font&gt;" style="text;html=1;strokeColor=none;fillColor=none;align=center;verticalAlign=middle;whiteSpace=wrap;rounded=0;" vertex="1" parent="1">
          <mxGeometry x="370" y="140" width="60" height="30" as="geometry" />
        </mxCell>
        <mxCell id="7fV9h47dfjSvaiMQt5YR-20" style="edgeStyle=orthogonalEdgeStyle;rounded=0;orthogonalLoop=1;jettySize=auto;html=1;entryX=0.5;entryY=0;entryDx=0;entryDy=0;" edge="1" parent="1" source="7fV9h47dfjSvaiMQt5YR-10" target="7fV9h47dfjSvaiMQt5YR-9">
          <mxGeometry relative="1" as="geometry" />
        </mxCell>
        <mxCell id="7fV9h47dfjSvaiMQt5YR-10" value="client&lt;br&gt;c#" style="rounded=0;whiteSpace=wrap;html=1;" vertex="1" parent="1">
          <mxGeometry x="130" y="260" width="90" height="40" as="geometry" />
        </mxCell>
        <mxCell id="7fV9h47dfjSvaiMQt5YR-11" value="" style="shape=curlyBracket;whiteSpace=wrap;html=1;rounded=1;flipH=1;labelPosition=right;verticalLabelPosition=middle;align=left;verticalAlign=middle;rotation=-90;" vertex="1" parent="1">
          <mxGeometry x="330" y="-160" width="20" height="440" as="geometry" />
        </mxCell>
        <mxCell id="7fV9h47dfjSvaiMQt5YR-19" style="edgeStyle=orthogonalEdgeStyle;rounded=0;orthogonalLoop=1;jettySize=auto;html=1;" edge="1" parent="1" source="7fV9h47dfjSvaiMQt5YR-12" target="7fV9h47dfjSvaiMQt5YR-9">
          <mxGeometry relative="1" as="geometry" />
        </mxCell>
        <mxCell id="7fV9h47dfjSvaiMQt5YR-12" value="client&lt;br&gt;c#" style="rounded=0;whiteSpace=wrap;html=1;" vertex="1" parent="1">
          <mxGeometry x="260" y="260" width="90" height="40" as="geometry" />
        </mxCell>
        <mxCell id="7fV9h47dfjSvaiMQt5YR-18" style="edgeStyle=orthogonalEdgeStyle;rounded=0;orthogonalLoop=1;jettySize=auto;html=1;exitX=0.5;exitY=1;exitDx=0;exitDy=0;entryX=0.5;entryY=0;entryDx=0;entryDy=0;" edge="1" parent="1" source="7fV9h47dfjSvaiMQt5YR-13" target="7fV9h47dfjSvaiMQt5YR-9">
          <mxGeometry relative="1" as="geometry" />
        </mxCell>
        <mxCell id="7fV9h47dfjSvaiMQt5YR-21" value="UPDATE /device" style="edgeLabel;html=1;align=center;verticalAlign=middle;resizable=0;points=[];" vertex="1" connectable="0" parent="7fV9h47dfjSvaiMQt5YR-18">
          <mxGeometry x="0.6593" relative="1" as="geometry">
            <mxPoint y="14" as="offset" />
          </mxGeometry>
        </mxCell>
        <mxCell id="7fV9h47dfjSvaiMQt5YR-13" value="client&lt;br&gt;c#" style="rounded=0;whiteSpace=wrap;html=1;" vertex="1" parent="1">
          <mxGeometry x="460" y="260" width="90" height="40" as="geometry" />
        </mxCell>
        <mxCell id="7fV9h47dfjSvaiMQt5YR-14" value="&lt;font size=&quot;1&quot; style=&quot;&quot;&gt;&lt;b style=&quot;font-size: 23px;&quot;&gt;...&lt;/b&gt;&lt;/font&gt;" style="text;html=1;strokeColor=none;fillColor=none;align=center;verticalAlign=middle;whiteSpace=wrap;rounded=0;" vertex="1" parent="1">
          <mxGeometry x="370" y="260" width="60" height="30" as="geometry" />
        </mxCell>
      </root>
    </mxGraphModel>
  </diagram>
</mxfile>
